<svg xmlns="http://www.w3.org/2000/svg" width="95.91" height="146.479" viewBox="0 0 95.91 146.479">
  <g id="Groupe_1833" data-name="Groupe 1833" transform="translate(1093 -2366.918)">
    <g id="Groupe_1821" data-name="Groupe 1821" transform="translate(-1093 2366.918)">
      <path id="Tracé_2451" data-name="Tracé 2451" d="M-1079.229,2511.717v10.56a1.426,1.426,0,0,0,1.516,1.316h85.124a1.427,1.427,0,0,0,1.516-1.316v-6.8a1.274,1.274,0,0,0-.66-1.086c-5.145-3.055-40.582-20.183-86.567-3.891A1.324,1.324,0,0,0-1079.229,2511.717Z" transform="translate(1083.375 -2462.43)" fill="#111485"/>
      <path id="Tracé_2452" data-name="Tracé 2452" d="M-1083.812,2384a35.676,35.676,0,0,0,6.02,6.124,1.975,1.975,0,0,0,1.4.408c4.795-.426,31.07-3.343,60.731-18.127a2.065,2.065,0,0,0-1.029-3.907c-15.633,1.059-47.272,4.132-66.326,12.348A2.068,2.068,0,0,0-1083.812,2384Z" transform="translate(1086.88 -2368.018)" fill="#99d244"/>
      <path id="Tracé_2453" data-name="Tracé 2453" d="M-999.628,2376.953l-12.717-.087a1.935,1.935,0,0,1-.225.163,191.168,191.168,0,0,1-48.921,19.148,140.812,140.812,0,0,1-21.681,3.678c-.035,0-.07,0-.106,0a1.938,1.938,0,0,1-1.17-.381,34.657,34.657,0,0,1-2.97-2.5,4.339,4.339,0,0,0-2.718-1.2,2.561,2.561,0,0,0-2.865,2.534v18.122a2.557,2.557,0,0,0,3.486,2.381c11.33-4.384,48.71-15.977,88.778,3.019a2.553,2.553,0,0,0,3.646-2.308v-40.021A2.556,2.556,0,0,0-999.628,2376.953Z" transform="translate(1093 -2373.871)" fill="#fe9929"/>
      <path id="Tracé_2454" data-name="Tracé 2454" d="M-1066.589,2366.918h-22.086c-1.5,0-4.325.732-4.325,3.5v4.286a2.213,2.213,0,0,0,.989,1.8,2.487,2.487,0,0,0,1.345.35,7.19,7.19,0,0,0,3.007-.859c6.238-3.026,12.874-4.2,20.558-5.55l.624-.11c1.5-.264,1.967-1.121,1.905-1.833A1.925,1.925,0,0,0-1066.589,2366.918Z" transform="translate(1093 -2366.918)" fill="#5baba5"/>
    </g>
    <g id="Groupe_1823" data-name="Groupe 1823" transform="translate(-1088.133 2435.693)">
      <path id="Tracé_2455" data-name="Tracé 2455" d="M-1058.8,2685.646v3.065c0,3.862-2.232,6.008-6.216,6.008h-3.825v2.482l1.913.307v3.586h-8.925v-3.586l1.913-.307v-13.67l-1.913-.307v-3.586h10.838C-1061.031,2679.639-1058.8,2681.784-1058.8,2685.646Zm-10.041-1.778v6.621h2.869c1.5,0,2.072-.552,2.072-1.992v-2.514c0-1.532-.574-2.115-2.072-2.115Z" transform="translate(1076.148 -2654.27)" fill="#111485"/>
      <path id="Tracé_2456" data-name="Tracé 2456" d="M-1008.879,2701.881c0-3.218,1.785-4.935,5.164-4.935h6.152v5.916h-3.507l-.318-2.023h-1.307c-1.02,0-1.466.429-1.466,1.41v7.387l1.753.306v3.25h-8.224v-3.25l1.753-.306Z" transform="translate(1030.562 -2666.368)" fill="#111485"/>
      <path id="Tracé_2457" data-name="Tracé 2457" d="M-952.981,2695.258c-3.347,0-5.132-1.686-5.132-4.935v-6.529c0-3.218,1.785-4.935,5.132-4.935h4.08c3.379,0,5.132,1.717,5.132,4.935v4.72H-953.4v1.41c0,1.011.446,1.441,1.5,1.441h7.108v3.893Zm-.414-10.115h4.909v-.981c0-.98-.446-1.41-1.5-1.41H-951.9c-1.052,0-1.5.429-1.5,1.41Zm7.427-10.82-5.451,2.759-1.562-2.146,4.813-3.647Z" transform="translate(993.854 -2648.434)" fill="#111485"/>
      <path id="Tracé_2458" data-name="Tracé 2458" d="M-873.892,2692.02v-2.73h5.2v15.561l1.417.258v2.73h-8.605c-2.705,0-4.148-1.417-4.148-4.148v-5.359c0-2.705,1.443-4.148,4.148-4.148h3.375v-1.906Zm1.391,12.548v-7.111H-875c-.85,0-1.211.36-1.211,1.185v4.715c0,.851.361,1.211,1.211,1.211Z" transform="translate(939.273 -2661.015)" fill="#111485"/>
      <path id="Tracé_2459" data-name="Tracé 2459" d="M-825.385,2718.905c-2.705,0-4.148-1.417-4.148-4.148v-5.488c0-2.7,1.443-4.148,4.148-4.148h3.3c2.731,0,4.148,1.443,4.148,4.148v3.968h-7.781v1.185c0,.85.361,1.211,1.211,1.211h5.746v3.271Zm-.335-8.5h3.968v-.824c0-.824-.361-1.186-1.211-1.186h-1.546c-.85,0-1.211.361-1.211,1.186Z" transform="translate(903.982 -2672.081)" fill="#111485"/>
      <path id="Tracé_2460" data-name="Tracé 2460" d="M-1065.288,2768.115h-3.409c-1.484,0-2.052.551-2.052,1.992v9.012c0,1.44.568,1.992,2.052,1.992h7.734v4.23h-8.649c-3.978,0-6.187-2.145-6.187-5.977v-9.471c0-3.862,2.21-6.008,6.156-6.008h8.681v6.621h-3.851Z" transform="translate(1076.111 -2713.155)" fill="#111485"/>
      <path id="Tracé_2461" data-name="Tracé 2461" d="M-998.888,2791.791c0,3.249-1.736,4.935-5.082,4.935h-4.356c-3.315,0-5.083-1.686-5.083-4.935v-6.682c0-3.218,1.768-4.935,5.083-4.935h4.356c3.346,0,5.082,1.717,5.082,4.935Zm-4.672-6.192c0-1.134-.41-1.532-1.484-1.532h-2.21c-1.042,0-1.484.429-1.484,1.409v5.794c0,1.134.41,1.563,1.484,1.563h2.21c1.042,0,1.484-.429,1.484-1.44Z" transform="translate(1032.503 -2724.54)" fill="#111485"/>
      <path id="Tracé_2462" data-name="Tracé 2462" d="M-953.474,2785.109c0-3.218,1.768-4.935,5.114-4.935h6.092v5.916h-3.472l-.316-2.023h-1.294c-1.01,0-1.452.429-1.452,1.409v7.387l1.737.307v3.249h-8.145v-3.249l1.736-.307Z" transform="translate(991.824 -2724.54)" fill="#111485"/>
      <path id="Tracé_2463" data-name="Tracé 2463" d="M-895.79,2765.1v-3.249h6.377v18.513l1.736.306v3.249H-898.22c-3.315,0-5.083-1.686-5.083-4.935v-6.375c0-3.218,1.768-4.935,5.083-4.935h4.135V2765.4Zm1.7,14.927v-8.459h-3.062c-1.042,0-1.484.429-1.484,1.41v5.609c0,1.011.442,1.44,1.484,1.44Z" transform="translate(955.544 -2711.731)" fill="#111485"/>
      <path id="Tracé_2464" data-name="Tracé 2464" d="M-839.72,2795.806H-841.9l-3.567-12.077-1.736-.306v-3.249h5.493l2.715,10.421h.632l1.894-6.866-1.705-.306v-3.249h8.018v3.249l-1.7.306-3.977,13.3c-1.073,3.8-2.651,5.211-6.092,5.211h-1.294v-3.893h1.042c1.42,0,1.8-.429,2.115-1.441Z" transform="translate(916.331 -2724.54)" fill="#111485"/>
      <g id="Groupe_1822" data-name="Groupe 1822">
        <path id="Tracé_2465" data-name="Tracé 2465" d="M-1075.7,2621.164h7.1v.962h-8.234v-13.873h1.133Z" transform="translate(1076.834 -2604.375)" fill="#111485"/>
        <path id="Tracé_2466" data-name="Tracé 2466" d="M-1032.519,2615.961l4.259-7.708h1.313l-5.014,8.8v5.069h-1.124v-5.116l-4.977-8.757h1.313Z" transform="translate(1049.734 -2604.375)" fill="#111485"/>
        <path id="Tracé_2467" data-name="Tracé 2467" d="M-971.115,2617.327l.019.057a4.053,4.053,0,0,1-1.322,3.259,5.143,5.143,0,0,1-3.569,1.219,4.6,4.6,0,0,1-3.7-1.672,6.5,6.5,0,0,1-1.407-4.331V2613.6a6.519,6.519,0,0,1,1.407-4.33,4.589,4.589,0,0,1,3.7-1.682,5.209,5.209,0,0,1,3.583,1.191,4.047,4.047,0,0,1,1.308,3.277l-.019.057h-1.058a3.385,3.385,0,0,0-1.015-2.615,3.965,3.965,0,0,0-2.8-.939,3.478,3.478,0,0,0-2.895,1.411,5.731,5.731,0,0,0-1.09,3.611v2.277a5.758,5.758,0,0,0,1.09,3.635,3.482,3.482,0,0,0,2.895,1.406,4.031,4.031,0,0,0,2.8-.915,3.4,3.4,0,0,0,1.015-2.658Z" transform="translate(1009.918 -2603.911)" fill="#111485"/>
        <path id="Tracé_2468" data-name="Tracé 2468" d="M-915.389,2606.405h-6.166v5.755h7.129v.962h-8.263v-13.873h8.215v.972h-7.082v5.212h6.166Zm-1.917-11.034h1.388l.028.058-2.351,2.477h-1.011Z" transform="translate(969.093 -2595.371)" fill="#111485"/>
        <path id="Tracé_2469" data-name="Tracé 2469" d="M-864.445,2615.409h-6.166v5.755h7.129v.962h-8.263v-13.873h8.215v.972h-7.082v5.212h6.166Z" transform="translate(933.486 -2604.375)" fill="#111485"/>
        <path id="Tracé_2470" data-name="Tracé 2470" d="M-814.939,2618.289a2.191,2.191,0,0,0-.841-1.763,8.542,8.542,0,0,0-2.852-1.305,9.488,9.488,0,0,1-3.347-1.52,2.987,2.987,0,0,1-1.147-2.473,3.2,3.2,0,0,1,1.284-2.615,5.09,5.09,0,0,1,3.277-1.024,4.823,4.823,0,0,1,3.371,1.157,3.684,3.684,0,0,1,1.237,2.939l-.019.058h-1.058a2.96,2.96,0,0,0-.987-2.278,3.617,3.617,0,0,0-2.545-.906,3.79,3.79,0,0,0-2.517.768,2.369,2.369,0,0,0-.911,1.882,2.154,2.154,0,0,0,.826,1.739,8.413,8.413,0,0,0,2.913,1.272,9.483,9.483,0,0,1,3.315,1.572,3.039,3.039,0,0,1,1.142,2.477,3.087,3.087,0,0,1-1.336,2.606,5.52,5.52,0,0,1-3.367.986,6.076,6.076,0,0,1-3.541-1.043,3.361,3.361,0,0,1-1.464-3.044l.019-.057h1.048a2.669,2.669,0,0,0,1.2,2.4,4.884,4.884,0,0,0,2.738.786,4.232,4.232,0,0,0,2.569-.729A2.239,2.239,0,0,0-814.939,2618.289Z" transform="translate(899.769 -2603.911)" fill="#111485"/>
      </g>
    </g>
  </g>
</svg>
